<svg width="21" height="20" viewBox="0 0 21 20" fill="none" xmlns="http://www.w3.org/2000/svg">
    <path d="M18.625 16.25C18.625 16.4158 18.5592 16.5747 18.4419 16.6919C18.3247 16.8092 18.1658 16.875 18 16.875H3C2.83424 16.875 2.67527 16.8092 2.55806 16.6919C2.44085 16.5747 2.375 16.4158 2.375 16.25V3.75C2.375 3.58424 2.44085 3.42527 2.55806 3.30806C2.67527 3.19085 2.83424 3.125 3 3.125C3.16576 3.125 3.32473 3.19085 3.44194 3.30806C3.55915 3.42527 3.625 3.58424 3.625 3.75V12.2414L7.55781 8.30781C7.61586 8.2497 7.68479 8.2036 7.76066 8.17215C7.83654 8.1407 7.91787 8.12451 8 8.12451C8.08213 8.12451 8.16346 8.1407 8.23934 8.17215C8.31521 8.2036 8.38414 8.2497 8.44219 8.30781L10.5 10.3664L14.6164 6.25H13C12.8342 6.25 12.6753 6.18415 12.5581 6.06694C12.4408 5.94973 12.375 5.79076 12.375 5.625C12.375 5.45924 12.4408 5.30027 12.5581 5.18306C12.6753 5.06585 12.8342 5 13 5H16.125C16.2908 5 16.4497 5.06585 16.5669 5.18306C16.6842 5.30027 16.75 5.45924 16.75 5.625V8.75C16.75 8.91576 16.6842 9.07473 16.5669 9.19194C16.4497 9.30915 16.2908 9.375 16.125 9.375C15.9592 9.375 15.8003 9.30915 15.6831 9.19194C15.5658 9.07473 15.5 8.91576 15.5 8.75V7.13359L10.9422 11.6922C10.8841 11.7503 10.8152 11.7964 10.7393 11.8279C10.6635 11.8593 10.5821 11.8755 10.5 11.8755C10.4179 11.8755 10.3365 11.8593 10.2607 11.8279C10.1848 11.7964 10.1159 11.7503 10.0578 11.6922L8 9.63359L3.625 14.0086V15.625H18C18.1658 15.625 18.3247 15.6908 18.4419 15.8081C18.5592 15.9253 18.625 16.0842 18.625 16.25Z" fill="#323B4A"/>
</svg>
