<svg width="17" height="14" viewBox="0 0 17 14" fill="none" xmlns="http://www.w3.org/2000/svg">
    <path d="M16.625 13.25C16.625 13.4158 16.5592 13.5747 16.4419 13.6919C16.3247 13.8092 16.1658 13.875 16 13.875H1C0.83424 13.875 0.675268 13.8092 0.558058 13.6919C0.440848 13.5747 0.375 13.4158 0.375 13.25V0.75C0.375 0.58424 0.440848 0.425269 0.558058 0.308058C0.675268 0.190848 0.83424 0.125 1 0.125C1.16576 0.125 1.32473 0.190848 1.44194 0.308058C1.55915 0.425269 1.625 0.58424 1.625 0.75V9.24141L5.55781 5.30781C5.61586 5.2497 5.68479 5.2036 5.76066 5.17215C5.83654 5.1407 5.91787 5.12451 6 5.12451C6.08213 5.12451 6.16346 5.1407 6.23934 5.17215C6.31521 5.2036 6.38414 5.2497 6.44219 5.30781L8.5 7.36641L12.6164 3.25H11C10.8342 3.25 10.6753 3.18415 10.5581 3.06694C10.4408 2.94973 10.375 2.79076 10.375 2.625C10.375 2.45924 10.4408 2.30027 10.5581 2.18306C10.6753 2.06585 10.8342 2 11 2H14.125C14.2908 2 14.4497 2.06585 14.5669 2.18306C14.6842 2.30027 14.75 2.45924 14.75 2.625V5.75C14.75 5.91576 14.6842 6.07473 14.5669 6.19194C14.4497 6.30915 14.2908 6.375 14.125 6.375C13.9592 6.375 13.8003 6.30915 13.6831 6.19194C13.5658 6.07473 13.5 5.91576 13.5 5.75V4.13359L8.94219 8.69219C8.88414 8.7503 8.81521 8.7964 8.73934 8.82785C8.66346 8.8593 8.58213 8.87549 8.5 8.87549C8.41787 8.87549 8.33654 8.8593 8.26066 8.82785C8.18479 8.7964 8.11586 8.7503 8.05781 8.69219L6 6.63359L1.625 11.0086V12.625H16C16.1658 12.625 16.3247 12.6908 16.4419 12.8081C16.5592 12.9253 16.625 13.0842 16.625 13.25Z" fill="#F7941E"/>
</svg>
