<svg width="21" height="17" viewBox="0 0 21 17" fill="none" xmlns="http://www.w3.org/2000/svg">
    <path d="M8.5 0.25C6.42893 0.25 4.75 1.92893 4.75 4C4.75 6.07107 6.42893 7.75 8.5 7.75C10.5711 7.75 12.25 6.07107 12.25 4C12.25 1.92893 10.5711 0.25 8.5 0.25Z" fill="white"/>
    <path d="M4.5 9.75C2.42893 9.75 0.75 11.4289 0.75 13.5V14.6883C0.75 15.4415 1.29588 16.0837 2.03927 16.2051C6.3181 16.9037 10.6819 16.9037 14.9607 16.2051C15.7041 16.0837 16.25 15.4415 16.25 14.6883V13.5C16.25 11.4289 14.5711 9.75 12.5 9.75H12.1591C11.9746 9.75 11.7913 9.77917 11.6159 9.83644L10.7504 10.1191C9.28813 10.5965 7.71187 10.5965 6.24959 10.1191L5.38407 9.83644C5.20869 9.77917 5.02536 9.75 4.84087 9.75H4.5Z" fill="white"/>
    <path d="M17 2.75C17.4142 2.75 17.75 3.08579 17.75 3.5V5.25H19.5C19.9142 5.25 20.25 5.58579 20.25 6C20.25 6.41421 19.9142 6.75 19.5 6.75H17.75V8.5C17.75 8.91421 17.4142 9.25 17 9.25C16.5858 9.25 16.25 8.91421 16.25 8.5V6.75H14.5C14.0858 6.75 13.75 6.41421 13.75 6C13.75 5.58579 14.0858 5.25 14.5 5.25H16.25V3.5C16.25 3.08579 16.5858 2.75 17 2.75Z" fill="white"/>
</svg>
