<svg width="12" height="12" viewBox="0 0 12 12" fill="none" xmlns="http://www.w3.org/2000/svg">
    <path d="M9.82783 5.73483C9.86269 5.76966 9.89035 5.81102 9.90923 5.85654C9.9281 5.90207 9.93781 5.95087 9.93781 6.00015C9.93781 6.04943 9.9281 6.09822 9.90923 6.14375C9.89035 6.18927 9.86269 6.23063 9.82783 6.26546L5.98173 10.1092C5.48936 10.6015 4.82159 10.8781 4.12532 10.878C3.42904 10.878 2.76131 10.6013 2.269 10.109C1.77669 9.6166 1.50014 8.94883 1.50018 8.25256C1.50023 7.55629 1.77686 6.88855 2.26923 6.39624L6.92205 1.67499C7.27356 1.3231 7.75047 1.12526 8.24785 1.125C8.74523 1.12474 9.22235 1.32207 9.57423 1.67358C9.92612 2.0251 10.124 2.502 10.1242 2.99939C10.1245 3.49677 9.92716 3.97388 9.57564 4.32577L4.92189 9.04702C4.71055 9.25837 4.4239 9.3771 4.12501 9.3771C3.82613 9.3771 3.53948 9.25837 3.32814 9.04702C3.11679 8.83568 2.99806 8.54903 2.99806 8.25015C2.99806 7.95126 3.11679 7.66462 3.32814 7.45327L7.23283 3.48671C7.26703 3.45022 7.30819 3.42094 7.35388 3.4006C7.39957 3.38025 7.44887 3.36926 7.49887 3.36825C7.54887 3.36724 7.59857 3.37625 7.64504 3.39474C7.69151 3.41323 7.73382 3.44082 7.76946 3.47591C7.80511 3.51099 7.83338 3.55285 7.8526 3.59902C7.87183 3.64519 7.88162 3.69474 7.88141 3.74475C7.8812 3.79477 7.87099 3.84423 7.85138 3.89024C7.83176 3.93625 7.80314 3.97786 7.7672 4.01265L3.86205 7.98343C3.82708 8.01812 3.79929 8.05935 3.78026 8.10478C3.76123 8.15021 3.75134 8.19894 3.75114 8.24819C3.75095 8.29744 3.76045 8.34625 3.77912 8.39182C3.79779 8.4374 3.82525 8.47885 3.85994 8.51382C3.89462 8.54878 3.93586 8.57657 3.98129 8.5956C4.02671 8.61463 4.07544 8.62453 4.12469 8.62472C4.17395 8.62492 4.22275 8.61541 4.26833 8.59674C4.31391 8.57808 4.35536 8.55062 4.39033 8.51593L9.04361 3.79702C9.25495 3.58611 9.37386 3.29988 9.37417 3.00131C9.37447 2.70273 9.25616 2.41626 9.04525 2.20491C8.83434 1.99357 8.54811 1.87466 8.24953 1.87435C7.95096 1.87405 7.66448 1.99236 7.45314 2.20327L2.80126 6.92265C2.627 7.09664 2.4887 7.30325 2.39428 7.53069C2.29987 7.75812 2.25117 8.00193 2.25097 8.24819C2.25078 8.49444 2.29909 8.73833 2.39314 8.96591C2.4872 9.1935 2.62516 9.40033 2.79915 9.5746C2.97315 9.74887 3.17976 9.88716 3.40719 9.98158C3.63463 10.076 3.87844 10.1247 4.12469 10.1249C4.37095 10.1251 4.61484 10.0768 4.84242 9.98272C5.07001 9.88866 5.27684 9.7507 5.45111 9.57671L9.29767 5.73296C9.36824 5.66293 9.46372 5.6238 9.56314 5.62415C9.66255 5.6245 9.75776 5.66431 9.82783 5.73483Z" fill="#5F6774"/>
</svg>
