<svg width="20" height="20" viewBox="0 0 20 20" fill="none" xmlns="http://www.w3.org/2000/svg">
    <path d="M14.9669 9.72071L10.6357 2.23442C10.0594 1.2381 9.56007 1.79552 9.36854 2.08915L9.28507 2.23356L4.95346 9.72071C2.71593 13.5881 5.52015 18.4183 9.96011 18.425C10.943 18.4236 11.9389 18.1738 12.8507 17.6461C15.6238 16.0417 16.571 12.4936 14.9669 9.72071Z" fill="#FB5858"/>
    <path d="M5.75858 9.72051L10.09 2.23364L10.1737 2.08895C10.219 2.01954 10.2817 1.93543 10.3583 1.86047C9.90335 1.41465 9.52889 1.84368 9.36886 2.08895L9.28538 2.23336L4.95374 9.72051C3.3494 12.4934 4.29694 16.0415 7.06983 17.6459C7.98175 18.1736 8.97757 18.4234 9.96038 18.4248C10.0944 18.4247 10.2286 18.4194 10.3628 18.4099C6.10659 18.1083 3.61073 13.4328 5.75858 9.72051Z" fill="#F44545"/>
</svg>
