<svg width="40" height="40" viewBox="0 0 40 40" fill="none" xmlns="http://www.w3.org/2000/svg">
    <path d="M31.25 3.75H11.25C10.587 3.75 9.95107 4.01339 9.48223 4.48223C9.01339 4.95107 8.75 5.58696 8.75 6.25V10H6.25C5.58696 10 4.95107 10.2634 4.48223 10.7322C4.01339 11.2011 3.75 11.837 3.75 12.5V27.5C3.75 28.163 4.01339 28.7989 4.48223 29.2678C4.95107 29.7366 5.58696 30 6.25 30H8.75V33.75C8.75 34.413 9.01339 35.0489 9.48223 35.5178C9.95107 35.9866 10.587 36.25 11.25 36.25H31.25C31.913 36.25 32.5489 35.9866 33.0178 35.5178C33.4866 35.0489 33.75 34.413 33.75 33.75V6.25C33.75 5.58696 33.4866 4.95107 33.0178 4.48223C32.5489 4.01339 31.913 3.75 31.25 3.75ZM25 16.25H31.25V23.75H25V16.25ZM11.25 6.25H31.25V13.75H25V12.5C25 11.837 24.7366 11.2011 24.2678 10.7322C23.7989 10.2634 23.163 10 22.5 10H11.25V6.25ZM6.25 12.5H22.5V24.9734C22.5 24.9828 22.5 24.9906 22.5 25C22.5 25.0094 22.5 25.0172 22.5 25.0266V27.5H6.25V12.5ZM11.25 33.75V30H22.5C23.163 30 23.7989 29.7366 24.2678 29.2678C24.7366 28.7989 25 28.163 25 27.5V26.25H31.25V33.75H11.25ZM10.6625 24.0531L8.7875 16.5531C8.7445 16.3928 8.73384 16.2256 8.75616 16.0611C8.77847 15.8967 8.83331 15.7383 8.91747 15.5953C9.00163 15.4523 9.11343 15.3274 9.24634 15.2281C9.37926 15.1287 9.53063 15.0568 9.69163 15.0165C9.85263 14.9763 10.02 14.9685 10.1841 14.9936C10.3481 15.0188 10.5055 15.0763 10.6471 15.1629C10.7887 15.2495 10.9116 15.3634 11.0086 15.498C11.1057 15.6326 11.175 15.7852 11.2125 15.9469L12.2687 20.1656L13.2562 18.1875C13.3599 17.9795 13.5195 17.8045 13.7172 17.6822C13.9148 17.5599 14.1426 17.4951 14.375 17.4951C14.6074 17.4951 14.8352 17.5599 15.0328 17.6822C15.2305 17.8045 15.3901 17.9795 15.4938 18.1875L16.4813 20.1656L17.5375 15.9469C17.6224 15.6303 17.8284 15.3597 18.1109 15.1934C18.3934 15.0272 18.73 14.9786 19.048 15.0581C19.366 15.1376 19.6401 15.3389 19.8111 15.6185C19.9822 15.8981 20.0365 16.2338 19.9625 16.5531L18.0875 24.0531C18.0252 24.3006 17.8887 24.5231 17.6962 24.6907C17.5038 24.8583 17.2646 24.9629 17.0109 24.9906C16.9658 24.9956 16.9204 24.9982 16.875 24.9984C16.6428 24.9986 16.4151 24.9341 16.2175 24.8121C16.0199 24.6901 15.8602 24.5155 15.7562 24.3078L14.375 21.5453L12.9938 24.3094C12.8796 24.538 12.6981 24.7261 12.4737 24.8485C12.2493 24.9708 11.9929 25.0214 11.7388 24.9935C11.4848 24.9655 11.2455 24.8604 11.053 24.6923C10.8606 24.5242 10.7243 24.3011 10.6625 24.0531Z" fill="#F7941E"/>
</svg>
