<svg width="30" height="30" viewBox="0 0 30 30" fill="none" xmlns="http://www.w3.org/2000/svg">
    <path d="M23.75 12.5C23.75 12.8315 23.6183 13.1495 23.3839 13.3839C23.1495 13.6183 22.8315 13.75 22.5 13.75H12.5C12.1685 13.75 11.8505 13.6183 11.6161 13.3839C11.3817 13.1495 11.25 12.8315 11.25 12.5C11.25 12.1685 11.3817 11.8505 11.6161 11.6161C11.8505 11.3817 12.1685 11.25 12.5 11.25H22.5C22.8315 11.25 23.1495 11.3817 23.3839 11.6161C23.6183 11.8505 23.75 12.1685 23.75 12.5ZM22.5 16.25H12.5C12.1685 16.25 11.8505 16.3817 11.6161 16.6161C11.3817 16.8505 11.25 17.1685 11.25 17.5C11.25 17.8315 11.3817 18.1495 11.6161 18.3839C11.8505 18.6183 12.1685 18.75 12.5 18.75H22.5C22.8315 18.75 23.1495 18.6183 23.3839 18.3839C23.6183 18.1495 23.75 17.8315 23.75 17.5C23.75 17.1685 23.6183 16.8505 23.3839 16.6161C23.1495 16.3817 22.8315 16.25 22.5 16.25ZM30 2.5V27.5C30 28.163 29.7366 28.7989 29.2678 29.2678C28.7989 29.7366 28.163 30 27.5 30H2.5C1.83696 30 1.20107 29.7366 0.732233 29.2678C0.263392 28.7989 0 28.163 0 27.5V2.5C0 1.83696 0.263392 1.20107 0.732233 0.732233C1.20107 0.263392 1.83696 0 2.5 0H27.5C28.163 0 28.7989 0.263392 29.2678 0.732233C29.7366 1.20107 30 1.83696 30 2.5ZM2.5 27.5H6.25V2.5H2.5V27.5ZM27.5 27.5V2.5H8.75V27.5H27.5Z" fill="#F9A94B"/>
</svg>
