<svg width="12" height="10" viewBox="0 0 12 10" fill="none" xmlns="http://www.w3.org/2000/svg">
<path d="M1.125 0C0.826631 0 0.540483 0.131696 0.329505 0.366116C0.118526 0.600537 0 0.918479 0 1.25V2.91667C0 3.24819 0.118526 3.56613 0.329505 3.80055C0.540483 4.03497 0.826631 4.16667 1.125 4.16667H2.625C2.92337 4.16667 3.20952 4.03497 3.4205 3.80055C3.63147 3.56613 3.75 3.24819 3.75 2.91667V1.25C3.75 0.918479 3.63147 0.600537 3.4205 0.366116C3.20952 0.131696 2.92337 0 2.625 0H1.125ZM0.75 1.25C0.75 1.13949 0.789509 1.03351 0.859835 0.955372C0.930161 0.877232 1.02554 0.833333 1.125 0.833333H2.625C2.72446 0.833333 2.81984 0.877232 2.89016 0.955372C2.96049 1.03351 3 1.13949 3 1.25V2.91667C3 3.02717 2.96049 3.13315 2.89016 3.21129C2.81984 3.28943 2.72446 3.33333 2.625 3.33333H1.125C1.02554 3.33333 0.930161 3.28943 0.859835 3.21129C0.789509 3.13315 0.75 3.02717 0.75 2.91667V1.25ZM5.625 0.833333C5.52554 0.833333 5.43016 0.877232 5.35983 0.955372C5.28951 1.03351 5.25 1.13949 5.25 1.25C5.25 1.36051 5.28951 1.46649 5.35983 1.54463C5.43016 1.62277 5.52554 1.66667 5.625 1.66667H11.625C11.7245 1.66667 11.8198 1.62277 11.8902 1.54463C11.9605 1.46649 12 1.36051 12 1.25C12 1.13949 11.9605 1.03351 11.8902 0.955372C11.8198 0.877232 11.7245 0.833333 11.625 0.833333H5.625ZM5.625 2.5C5.52554 2.5 5.43016 2.5439 5.35983 2.62204C5.28951 2.70018 5.25 2.80616 5.25 2.91667C5.25 3.02717 5.28951 3.13315 5.35983 3.21129C5.43016 3.28943 5.52554 3.33333 5.625 3.33333H10.125C10.2245 3.33333 10.3198 3.28943 10.3902 3.21129C10.4605 3.13315 10.5 3.02717 10.5 2.91667C10.5 2.80616 10.4605 2.70018 10.3902 2.62204C10.3198 2.5439 10.2245 2.5 10.125 2.5H5.625ZM1.125 5.83333C0.826631 5.83333 0.540483 5.96503 0.329505 6.19945C0.118526 6.43387 0 6.75181 0 7.08333V8.75C0 9.08152 0.118526 9.39946 0.329505 9.63388C0.540483 9.8683 0.826631 10 1.125 10H2.625C2.92337 10 3.20952 9.8683 3.4205 9.63388C3.63147 9.39946 3.75 9.08152 3.75 8.75V7.08333C3.75 6.75181 3.63147 6.43387 3.4205 6.19945C3.20952 5.96503 2.92337 5.83333 2.625 5.83333H1.125ZM0.75 7.08333C0.75 6.97283 0.789509 6.86685 0.859835 6.7887C0.930161 6.71057 1.02554 6.66667 1.125 6.66667H2.625C2.72446 6.66667 2.81984 6.71057 2.89016 6.7887C2.96049 6.86685 3 6.97283 3 7.08333V8.75C3 8.86051 2.96049 8.96649 2.89016 9.04463C2.81984 9.12277 2.72446 9.16667 2.625 9.16667H1.125C1.02554 9.16667 0.930161 9.12277 0.859835 9.04463C0.789509 8.96649 0.75 8.86051 0.75 8.75V7.08333ZM5.625 6.66667C5.52554 6.66667 5.43016 6.71057 5.35983 6.7887C5.28951 6.86685 5.25 6.97283 5.25 7.08333C5.25 7.19384 5.28951 7.29982 5.35983 7.37796C5.43016 7.4561 5.52554 7.5 5.625 7.5H11.625C11.7245 7.5 11.8198 7.4561 11.8902 7.37796C11.9605 7.29982 12 7.19384 12 7.08333C12 6.97283 11.9605 6.86685 11.8902 6.7887C11.8198 6.71057 11.7245 6.66667 11.625 6.66667H5.625ZM5.625 8.33333C5.52554 8.33333 5.43016 8.37723 5.35983 8.45537C5.28951 8.53351 5.25 8.63949 5.25 8.75C5.25 8.86051 5.28951 8.96649 5.35983 9.04463C5.43016 9.12277 5.52554 9.16667 5.625 9.16667H10.125C10.2245 9.16667 10.3198 9.12277 10.3902 9.04463C10.4605 8.96649 10.5 8.86051 10.5 8.75C10.5 8.63949 10.4605 8.53351 10.3902 8.45537C10.3198 8.37723 10.2245 8.33333 10.125 8.33333H5.625Z" fill="black"/>
</svg>
