<svg width="16" height="18" viewBox="0 0 16 18" fill="none" xmlns="http://www.w3.org/2000/svg">
    <path d="M9.38245 3.25203C9.87925 2.68014 10.1276 2.3942 10.3916 2.22741C11.0284 1.82496 11.8127 1.81244 12.4602 2.1944C12.7286 2.3527 12.9846 2.63059 13.4966 3.18638C14.0087 3.74216 14.2648 4.02006 14.4106 4.31133C14.7625 5.01413 14.751 5.86531 14.3802 6.55658C14.2265 6.84308 13.963 7.11268 13.4362 7.65188L7.16705 14.0675C6.16857 15.0893 5.66931 15.6002 5.04535 15.8591C4.42139 16.1181 3.73545 16.099 2.36355 16.0609L2.1769 16.0558C1.75925 16.0441 1.55043 16.0383 1.42904 15.8919C1.30765 15.7456 1.32422 15.5195 1.35737 15.0676L1.37537 14.8221C1.46865 13.5498 1.51529 12.9137 1.74912 12.3419C1.98294 11.7701 2.38627 11.3058 3.19293 10.3772L9.38245 3.25203Z" stroke="#121212" stroke-width="1.5" stroke-linejoin="round"/>
    <path d="M8.66669 3.3335L13.3334 8.29183" stroke="#121212" stroke-width="1.5" stroke-linejoin="round"/>
    <path d="M9.33331 16.0835H14.6666" stroke="#121212" stroke-width="1.5" stroke-linecap="round" stroke-linejoin="round"/>
</svg>
