<svg width="24" height="22" viewBox="0 0 24 22" fill="none" xmlns="http://www.w3.org/2000/svg">
    <path d="M11.7688 7.91187C10.4596 7.91187 9.39819 9.00611 9.39819 10.356C9.39819 11.7058 10.4595 12.8001 11.7688 12.8001C13.0779 12.8001 14.1393 11.7058 14.1393 10.356C14.1393 9.00611 13.078 7.91187 11.7688 7.91187ZM11.7688 11.6362C11.083 11.6362 10.527 11.063 10.527 10.3559C10.527 9.64885 11.083 9.07567 11.7688 9.07567C12.4545 9.07567 13.0105 9.64885 13.0105 10.3559C13.0105 11.063 12.4545 11.6362 11.7688 11.6362Z" fill="#4361EE"/>
    <path d="M21.2227 2.32563L5.81424 0.521735C5.21623 0.434077 4.61033 0.614071 4.14925 1.01638C3.68822 1.38495 3.3927 1.93128 3.33085 2.52935L3.04867 4.91522H2.17377C0.932053 4.91522 0.000762648 6.04993 0.000762648 7.33016V19.2303C-0.0305126 20.4511 0.904019 21.467 2.08816 21.4992C2.11668 21.5 2.14525 21.5002 2.17377 21.4998H17.6669C18.9086 21.4998 20.0374 20.5106 20.0374 19.2303V18.7648C20.4224 18.6881 20.7876 18.5296 21.1098 18.2993C21.567 17.9024 21.8598 17.3403 21.9282 16.7281L23.2264 4.91522C23.3587 3.63204 22.4655 2.47772 21.2227 2.32563ZM18.9086 19.2303C18.9086 19.8704 18.2877 20.336 17.6669 20.336H2.17377C1.61293 20.3529 1.14493 19.898 1.12846 19.3197C1.12759 19.2899 1.12797 19.2601 1.12959 19.2303V17.0772L5.50381 13.7603C6.02928 13.3444 6.7694 13.3813 7.2535 13.8476L10.3295 16.6408C10.7967 17.0452 11.3847 17.2712 11.9946 17.2809C12.4714 17.2869 12.9405 17.156 13.3492 16.9027L18.9086 13.5857V19.2303H18.9086ZM18.9086 12.2182L12.7565 15.9134C12.2282 16.2361 11.5595 16.1777 11.0914 15.7679L7.9872 12.9456C7.0975 12.1574 5.79712 12.1091 4.8547 12.8292L1.12959 15.6224V7.33016C1.12959 6.69004 1.55291 6.07905 2.17377 6.07905H17.6669C18.3302 6.1074 18.8659 6.64716 18.9086 7.33016V12.2182ZM22.0986 4.75811C22.0982 4.76196 22.0979 4.76585 22.0975 4.7697L20.7711 16.5826C20.7734 16.8889 20.6379 17.179 20.4042 17.3682C20.2913 17.4846 20.0374 17.5428 20.0374 17.601V7.33016C19.9928 6.00465 18.9529 4.94524 17.6668 4.91522H4.17744L4.43143 2.64574C4.48652 2.35186 4.63555 2.08555 4.85475 1.88923C5.10225 1.7128 5.4015 1.63055 5.7014 1.65644L21.0817 3.48947C21.7022 3.55023 22.1575 4.11822 22.0986 4.75811Z" fill="#4361EE"/>
</svg>
