<svg width="48" height="48" viewBox="0 0 48 48" fill="none" xmlns="http://www.w3.org/2000/svg">
    <path d="M0 8C0 3.58172 3.58172 0 8 0H40C44.4183 0 48 3.58172 48 8V40C48 44.4183 44.4183 48 40 48H8C3.58172 48 0 44.4183 0 40V8Z" fill="#E6EEF3"/>
    <path d="M37.074 21.3887H36V21.3333H24V26.6667H31.5353C30.436 29.7713 27.482 32 24 32C19.582 32 16 28.418 16 24C16 19.582 19.582 16 24 16C26.0393 16 27.8947 16.7693 29.3073 18.026L33.0787 14.2547C30.6973 12.0353 27.512 10.6667 24 10.6667C16.6367 10.6667 10.6667 16.6367 10.6667 24C10.6667 31.3633 16.6367 37.3333 24 37.3333C31.3633 37.3333 37.3333 31.3633 37.3333 24C37.3333 23.106 37.2413 22.2333 37.074 21.3887Z" fill="#FFC107"/>
    <path d="M11.9582 17.6647L16.4302 20.9443C17.6402 17.9485 20.5707 15.8333 24 15.8333C26.0818 15.8333 27.9758 16.6187 29.4179 17.9015L33.2678 14.0516C30.8369 11.7861 27.5852 10.3889 24 10.3889C18.772 10.3889 14.2381 13.3405 11.9582 17.6647Z" fill="#FF3D00"/>
    <path d="M24 37.6111C27.5157 37.6111 30.7103 36.2657 33.1256 34.0777L28.9129 30.5129C27.5005 31.5871 25.7745 32.1681 24 32.1667C20.4597 32.1667 17.4537 29.9093 16.3213 26.759L11.8827 30.1788C14.1353 34.5867 18.71 37.6111 24 37.6111Z" fill="#4CAF50"/>
    <path d="M37.3464 21.3343H36.25V21.2778H24V26.7222H31.6923C31.1555 28.2306 30.1885 29.5487 28.9109 30.5136L28.9129 30.5122L33.1256 34.077C32.8275 34.3478 37.6111 30.8056 37.6111 24C37.6111 23.0874 37.5172 22.1965 37.3464 21.3343Z" fill="#1976D2"/>
</svg>
