<svg width="20" height="17" viewBox="0 0 20 17" fill="none" xmlns="http://www.w3.org/2000/svg">
    <path d="M18.75 15.2502H17.5V9.6252L17.6828 9.80801C17.8003 9.92529 17.9596 9.99109 18.1256 9.99095C18.2916 9.9908 18.4507 9.92472 18.568 9.80723C18.6852 9.68975 18.751 9.53049 18.7509 9.36449C18.7508 9.19849 18.6847 9.03935 18.5672 8.92208L10.8836 1.24083C10.6492 1.00658 10.3314 0.875 10 0.875C9.66862 0.875 9.3508 1.00658 9.11641 1.24083L1.43281 8.92208C1.31564 9.03935 1.24986 9.19837 1.24993 9.36415C1.25 9.52993 1.31593 9.68889 1.4332 9.80606C1.55048 9.92323 1.7095 9.98902 1.87528 9.98895C2.04106 9.98887 2.20002 9.92295 2.31719 9.80567L2.5 9.6252V15.2502H1.25C1.08424 15.2502 0.925268 15.316 0.808058 15.4333C0.690848 15.5505 0.625 15.7094 0.625 15.8752C0.625 16.041 0.690848 16.1999 0.808058 16.3171C0.925268 16.4344 1.08424 16.5002 1.25 16.5002H18.75C18.9158 16.5002 19.0747 16.4344 19.1919 16.3171C19.3092 16.1999 19.375 16.041 19.375 15.8752C19.375 15.7094 19.3092 15.5505 19.1919 15.4333C19.0747 15.316 18.9158 15.2502 18.75 15.2502ZM3.75 8.3752L10 2.1252L16.25 8.3752V15.2502H12.5V10.8752C12.5 10.7094 12.4342 10.5505 12.3169 10.4333C12.1997 10.316 12.0408 10.2502 11.875 10.2502H8.125C7.95924 10.2502 7.80027 10.316 7.68306 10.4333C7.56585 10.5505 7.5 10.7094 7.5 10.8752V15.2502H3.75V8.3752ZM11.25 15.2502H8.75V11.5002H11.25V15.2502Z" fill="#F7941E"/>
</svg>
