<svg width="24" height="25" viewBox="0 0 24 25" fill="none" xmlns="http://www.w3.org/2000/svg">
    <path d="M12.136 19.603C11.624 19.603 11.113 19.432 10.686 19.09C9.285 17.968 6.635 15.237 6.635 12.931C6.635 11.039 8.093 9.50099 9.885 9.50099C10.775 9.50099 11.56 9.81899 12.135 10.353C12.71 9.81999 13.495 9.50099 14.385 9.50099C16.177 9.50099 17.635 11.04 17.635 12.931C17.635 15.238 14.986 17.969 13.585 19.091C13.158 19.433 12.647 19.603 12.136 19.603ZM9.885 11.5C9.196 11.5 8.635 12.142 8.635 12.93C8.635 14.206 10.552 16.42 11.936 17.528C12.054 17.625 12.215 17.625 12.335 17.528C13.719 16.42 15.635 14.206 15.635 12.929C15.635 12.14 15.074 11.499 14.385 11.499C13.763 11.499 13.135 11.873 13.135 12.708C13.135 13.26 12.688 13.708 12.135 13.708C11.582 13.708 11.135 13.26 11.135 12.708C11.135 11.815 10.461 11.499 9.885 11.499V11.5ZM19 24.5H5C2.243 24.5 0 22.257 0 19.5V10.224C0 8.55999 0.823 7.01099 2.203 6.07899L9.203 1.35499C10.901 0.208992 13.098 0.207992 14.798 1.35499L21.798 6.07799C23.177 7.00899 24 8.55799 24 10.223V19.499C24 22.256 21.757 24.5 19 24.5ZM12.001 2.49799C11.416 2.49799 10.832 2.66999 10.322 3.01399L3.322 7.73699C2.494 8.29599 2 9.22499 2 10.224V19.5C2 21.154 3.346 22.5 5 22.5H19C20.654 22.5 22 21.154 22 19.5V10.224C22 9.22499 21.506 8.29499 20.679 7.73699L13.679 3.01399C13.169 2.66999 12.585 2.49799 12.001 2.49799Z" fill="#888888"/>
</svg>
