<svg width="24" height="24" viewBox="0 0 24 24" fill="none" xmlns="http://www.w3.org/2000/svg">
    <path d="M15.635 12.4301C15.635 13.7071 13.718 15.9211 12.334 17.0281C12.215 17.1231 12.054 17.1241 11.935 17.0281C10.551 15.9211 8.635 13.7061 8.635 12.4301C8.635 11.6411 9.196 11.0001 9.885 11.0001C10.507 11.0001 11.135 11.3741 11.135 12.2091C11.135 12.7611 11.582 13.2091 12.135 13.2091C12.688 13.2091 13.135 12.7611 13.135 12.2091C13.135 11.3161 13.809 11.0001 14.385 11.0001C15.074 11.0001 15.635 11.6421 15.635 12.4301ZM24 9.72311V18.9991C24 21.7561 21.757 23.9991 19 23.9991H5C2.243 23.9991 0 21.7561 0 18.9991V9.72311C0 8.05811 0.824 6.50911 2.203 5.57811L9.203 0.855106C10.902 -0.290895 13.098 -0.290895 14.797 0.855106L21.797 5.57911C23.176 6.51011 24 8.05911 24 9.72411V9.72311ZM17.635 12.4301C17.635 10.5381 16.177 9.00011 14.385 9.00011C13.495 9.00011 12.71 9.31811 12.135 9.85211C11.56 9.31911 10.775 9.00011 9.885 9.00011C8.093 9.00011 6.635 10.5391 6.635 12.4301C6.635 14.7371 9.284 17.4681 10.685 18.5901C11.112 18.9321 11.623 19.1021 12.135 19.1021C12.647 19.1021 13.157 18.9311 13.584 18.5901C14.985 17.4691 17.635 14.7391 17.635 12.4301Z" fill="#D86D5B"/>
</svg>
