<svg width="10" height="22" viewBox="0 0 10 22" fill="none" xmlns="http://www.w3.org/2000/svg">
    <path d="M10.001 16.7378C10.0008 19.4992 7.76148 21.7378 5 21.7378C2.23864 21.7377 0.000132026 19.4992 0 16.7378V0.780762H10.001V16.7378ZM4.97266 16.5151C4.83482 16.0163 4.34225 15.7099 3.84277 15.7944L3.74219 15.8169L3.73438 15.8188C3.20209 15.9658 2.88939 16.517 3.03613 17.0493C3.17393 17.5483 3.66637 17.8538 4.16602 17.769L4.26562 17.7476L4.37109 17.7124C4.84358 17.529 5.11018 17.0142 4.97266 16.5151ZM6.97266 12.5151C6.83487 12.0162 6.34237 11.7098 5.84277 11.7944L5.74316 11.8169L5.73438 11.8188C5.20209 11.9656 4.88954 12.517 5.03613 13.0493C5.17391 13.5483 5.66636 13.8538 6.16602 13.769L6.26562 13.7476L6.27441 13.7446L6.37207 13.7124C6.84426 13.5289 7.11014 13.0141 6.97266 12.5151ZM2.91113 6.15967C2.49727 6.03805 2.04372 5.9801 1.58984 6.0874C1.17796 6.1848 0.82184 6.40484 0.52832 6.73193L0.40625 6.87939C0.153518 7.20746 0.213986 7.67832 0.541992 7.93115C0.849516 8.16801 1.2827 8.12898 1.54395 7.85303L1.59375 7.79443C1.723 7.62676 1.8363 7.5707 1.93457 7.54736C2.05 7.52008 2.22459 7.52067 2.48828 7.59814C3.04339 7.76132 3.72831 8.17413 4.59473 8.72998L4.82715 8.87256C5.97922 9.54746 7.02436 9.67748 7.90625 9.38037C8.82214 9.0717 9.40513 8.35387 9.68945 7.69189C9.85282 7.31137 9.67635 6.87004 9.2959 6.70654C8.91532 6.54318 8.47398 6.71953 8.31055 7.1001C8.15043 7.47268 7.84382 7.81895 7.42676 7.95947C7.05875 8.0833 6.46342 8.09347 5.58496 7.57764L5.40527 7.46729C4.58256 6.93947 3.71132 6.39486 2.91113 6.15967Z" fill="#333333"/>
</svg>
