<svg width="20" height="20" viewBox="0 0 20 20" fill="none" xmlns="http://www.w3.org/2000/svg">
    <path d="M9.37503 15.8332C9.37503 15.488 9.65485 15.2082 10 15.2082H15C15.1151 15.2082 15.2084 15.1149 15.2084 14.9998L15.2084 4.99984C15.2084 4.88478 15.1151 4.7915 15 4.7915L10 4.7915C9.65485 4.7915 9.37503 4.51168 9.37503 4.1665C9.37503 3.82133 9.65485 3.5415 10 3.5415H15C15.8054 3.5415 16.4584 4.19442 16.4584 4.99984V14.9998C16.4584 15.8053 15.8054 16.4582 15 16.4582H10C9.65485 16.4582 9.37503 16.1783 9.37503 15.8332Z" fill="#565656"/>
    <path d="M13.0097 10.9292C13.0097 11.3894 12.6366 11.7625 12.1764 11.7625H8.12971C8.1106 12.0587 8.08668 12.3547 8.05795 12.6503L8.03323 12.9046C7.99303 13.3181 7.5539 13.5658 7.17922 13.3862C5.65596 12.6562 4.27697 11.6572 3.10859 10.4373L3.08362 10.4113C2.86104 10.1789 2.86104 9.81239 3.08362 9.57999L3.10859 9.55393C4.27697 8.33403 5.65596 7.33506 7.17922 6.60504C7.5539 6.42548 7.99303 6.67314 8.03323 7.08667L8.05795 7.341C8.08668 7.63661 8.1106 7.93257 8.12971 8.22876H12.1764C12.6366 8.22876 13.0097 8.60185 13.0097 9.06209V10.9292Z" fill="#565656"/>
</svg>
