<svg width="20" height="20" viewBox="0 0 20 20" fill="none" xmlns="http://www.w3.org/2000/svg">
    <path d="M15.4695 2.53923C15.2038 2.45329 14.9226 2.39861 14.6335 2.36736C10.946 1.99236 10.0007 5.50798 10.0007 5.50798C10.0007 5.50798 9.0554 1.99236 5.37571 2.36736C1.95383 2.71111 0.156958 7.02361 2.39915 10.6486C3.03977 11.6877 4.03977 12.8049 5.11008 13.8439C7.25852 15.9299 9.6804 17.6642 10.0007 17.6642C10.4851 17.6642 15.6648 13.7814 17.6023 10.6564C19.657 7.33611 18.3288 3.43767 15.4695 2.53923Z" fill="#FC4F4F"/>
    <path d="M17.6023 10.6484C19.657 7.33594 18.3288 3.4375 15.4695 2.53906C15.4695 2.53906 18.321 5.28906 16.6804 8.11719C15.0398 10.9453 9.55539 14.4609 8.78195 14.5859C8.14133 14.6875 6.51633 14.5391 5.11008 13.8516C7.25851 15.9375 9.68039 17.6719 10.0007 17.6719C10.4851 17.6641 15.6648 13.7812 17.6023 10.6484Z" fill="black" fill-opacity="0.0823529"/>
    <path opacity="0.3" d="M4.70747 5.75174C5.4005 4.93078 5.62554 3.98097 5.21011 3.63028C4.79469 3.27959 3.89611 3.66082 3.20308 4.48178C2.51005 5.30274 2.28501 6.25255 2.70044 6.60324C3.11586 6.95393 4.01444 6.5727 4.70747 5.75174Z" fill="white"/>
</svg>
