<svg width="17" height="21" viewBox="0 0 17 21" fill="none" xmlns="http://www.w3.org/2000/svg">
    <path fill-rule="evenodd" clip-rule="evenodd" d="M9.5 1.5C9.5 0.947715 9.05229 0.5 8.5 0.5C7.94772 0.5 7.5 0.947715 7.5 1.5V2.25H6.94258C4.71751 2.25 2.87591 3.98001 2.73702 6.20074L2.51601 9.7342C2.43175 11.0814 1.97946 12.3797 1.2084 13.4876C0.511722 14.4886 1.13194 15.8712 2.34287 16.0165L5.75 16.4254V17.5C5.75 19.0188 6.98122 20.25 8.5 20.25C10.0188 20.25 11.25 19.0188 11.25 17.5V16.4254L14.6571 16.0165C15.8681 15.8712 16.4883 14.4886 15.7916 13.4876C15.0205 12.3797 14.5682 11.0814 14.484 9.7342L14.263 6.20074C14.1241 3.98001 12.2825 2.25 10.0574 2.25H9.5V1.5ZM6.94258 3.75C5.50958 3.75 4.32354 4.86417 4.23409 6.29438L4.01309 9.82784C3.91169 11.449 3.36744 13.0112 2.43959 14.3444C2.38924 14.4168 2.43406 14.5167 2.52159 14.5272L6.25925 14.9757C7.74774 15.1543 9.25225 15.1543 10.7407 14.9757L14.4784 14.5272C14.5659 14.5167 14.6108 14.4168 14.5604 14.3444C13.6326 13.0112 13.0883 11.449 12.9869 9.82784L12.7659 6.29438C12.6764 4.86417 11.4904 3.75 10.0574 3.75H6.94258ZM8.5 18.75C7.80964 18.75 7.25 18.1904 7.25 17.5V16.75H9.75V17.5C9.75 18.1904 9.19036 18.75 8.5 18.75Z" fill="#C4D3F6"/>
</svg>
