<svg width="24" height="25" viewBox="0 0 24 25" fill="none" xmlns="http://www.w3.org/2000/svg">
<path fill-rule="evenodd" clip-rule="evenodd" d="M7.30627 8.11781L7.64933 11.2054L6.95511 11.2608C5.98701 11.3381 5.19651 12.0658 5.03958 13.0242C4.67789 15.2331 4.67789 17.4861 5.03958 19.695C5.19651 20.6535 5.98701 21.3812 6.95511 21.4585L8.45124 21.5779C10.8134 21.7665 13.1868 21.7665 15.5489 21.5779L17.0451 21.4585C18.0132 21.3812 18.8037 20.6535 18.9606 19.695C19.3223 17.4861 19.3223 15.2331 18.9606 13.0242C18.8037 12.0658 18.0132 11.3381 17.0451 11.2608L16.3507 11.2054L16.6938 8.1178C16.7342 7.75383 16.7342 7.38649 16.6938 7.02251L16.671 6.81762C16.4295 4.64423 14.7209 2.92457 12.5492 2.66906C12.1843 2.62614 11.8157 2.62614 11.4509 2.66906C9.27913 2.92457 7.57053 4.64422 7.32904 6.81761L7.30627 7.02251C7.26583 7.38649 7.26583 7.75383 7.30627 8.11781ZM12.3739 4.15879C12.1255 4.12957 11.8746 4.12957 11.6262 4.15879C10.1475 4.33274 8.98428 5.50354 8.81986 6.98326L8.7971 7.18816C8.76889 7.44204 8.76889 7.69827 8.7971 7.95216L9.1459 11.0914C11.0467 10.9694 12.9534 10.9694 14.8542 11.0913L15.203 7.95216C15.2312 7.69827 15.2312 7.44204 15.203 7.18816L15.1802 6.98326C15.0158 5.50355 13.8525 4.33274 12.3739 4.15879ZM12.0001 14.8596C11.1716 14.8596 10.5001 15.5312 10.5001 16.3596C10.5001 17.1881 11.1716 17.8596 12.0001 17.8596C12.8285 17.8596 13.5001 17.1881 13.5001 16.3596C13.5001 15.5312 12.8285 14.8596 12.0001 14.8596Z" fill="#727272"/>
</svg>
