<svg width="25" height="25" viewBox="0 0 20 20" fill="none" xmlns="http://www.w3.org/2000/svg">
    <path fill-rule="evenodd" clip-rule="evenodd" d="M14.6023 6.1633V7.44108C16.0376 7.88909 17.0834 9.18841 17.0834 10.7403V14.8544C17.0834 16.7756 15.4906 18.3333 13.5269 18.3333H6.47402C4.50948 18.3333 2.91669 16.7756 2.91669 14.8544V10.7403C2.91669 9.18841 3.96331 7.88909 5.39776 7.44108V6.1633C5.40623 3.67895 7.46391 1.66663 9.98732 1.66663C12.5446 1.66663 14.6023 3.67895 14.6023 6.1633ZM10.0043 3.11583C11.7232 3.11583 13.1204 4.48222 13.1204 6.1633V7.26138H6.87963V6.14673C6.8881 4.47394 8.28529 3.11583 10.0043 3.11583ZM10.741 13.7124C10.741 14.1182 10.4107 14.4411 9.99579 14.4411C9.58933 14.4411 9.25909 14.1182 9.25909 13.7124V11.874C9.25909 11.4765 9.58933 11.1535 9.99579 11.1535C10.4107 11.1535 10.741 11.4765 10.741 11.874V13.7124Z" fill="#565656"/>
</svg>
