<svg width="22" height="22" viewBox="0 0 22 22" fill="none" xmlns="http://www.w3.org/2000/svg">
    <path d="M11 0C3.29 0 0 3.29 0 11C0 18.71 3.29 22 11 22C18.71 22 22 18.71 22 11C22 3.29 18.71 0 11 0ZM6.707 19.475C7.084 17.931 8.077 17 11 17C13.923 17 14.917 17.931 15.293 19.475C14.117 19.832 12.699 20 11 20C9.301 20 7.883 19.832 6.707 19.475ZM17.12 18.63C16.108 15.413 13.204 14.999 11.001 14.999C8.798 14.999 5.894 15.412 4.882 18.63C2.854 17.28 2.001 14.856 2.001 10.999C2 4.439 4.439 2 11 2C17.561 2 20 4.439 20 11C20 14.857 19.147 17.281 17.119 18.631L17.12 18.63ZM11 5C8.309 5 7 6.309 7 9C7 11.691 8.309 13 11 13C13.691 13 15 11.691 15 9C15 6.309 13.691 5 11 5ZM11 11C9.411 11 9 10.589 9 9C9 7.411 9.411 7 11 7C12.589 7 13 7.411 13 9C13 10.589 12.589 11 11 11Z" fill="#888888"/>
</svg>
