<svg width="22" height="23" viewBox="0 0 22 23" fill="none" xmlns="http://www.w3.org/2000/svg">
    <path d="M15.499 21.736C14.207 22.076 12.719 22.25 11 22.25C9.281 22.25 7.793 22.076 6.501 21.736C6.504 18.383 7.641 17.25 11 17.25C14.359 17.25 15.496 18.384 15.499 21.736ZM11 7.25C9.411 7.25 9 7.661 9 9.25C9 10.839 9.411 11.25 11 11.25C12.589 11.25 13 10.839 13 9.25C13 7.661 12.589 7.25 11 7.25ZM22 11.25C22 16.278 20.59 19.415 17.478 20.997C17.258 17.032 15.235 15.25 11 15.25C6.765 15.25 4.742 17.032 4.522 20.997C1.411 19.415 0 16.277 0 11.25C0 3.54 3.29 0.25 11 0.25C18.71 0.25 22 3.54 22 11.25ZM15 9.25C15 6.559 13.691 5.25 11 5.25C8.309 5.25 7 6.559 7 9.25C7 11.941 8.309 13.25 11 13.25C13.691 13.25 15 11.941 15 9.25Z" fill="#D86D5B"/>
</svg>
