<svg width="20" height="20" viewBox="0 0 20 20" fill="none" xmlns="http://www.w3.org/2000/svg">
    <g clip-path="url(#clip0_3550_1848)">
        <g clip-path="url(#clip1_3550_1848)">
            <path d="M8.67492 11.8427C8.93987 12.1968 9.26556 12.4923 9.63217 12.7198C8.50691 13.1596 7.47771 13.8166 6.60446 14.6541L6.97237 11.526L7.80943 10.689L8.67492 11.8427Z" fill="#656D78"/>
            <path d="M20.0688 10.4865C20.0688 10.6016 20.0554 10.7162 20.0292 10.8273C20.0029 10.9389 19.9637 11.047 19.912 11.15L19.7242 11.5261L19.196 12.3343C17.8321 10.7984 16.7602 9.02222 16.0373 7.09393L15.902 6.73291L16.0847 6.95219C16.889 7.91677 17.9298 8.65603 19.106 9.09718C19.3955 9.20574 19.6363 9.39831 19.8043 9.64129C19.9727 9.88426 20.0688 10.1772 20.0688 10.4865Z" fill="#656D78"/>
            <path d="M13.3097 6.96906C13.1115 7.1388 12.8944 7.28269 12.6626 7.39857C12.2258 7.61699 11.7385 7.73503 11.2371 7.73503C10.484 7.73503 9.75336 7.4787 9.16531 7.00826L8.35065 6.35645C8.35065 7.1431 8.07235 7.90089 7.57003 8.49842C7.44122 8.4506 7.30121 8.42432 7.15516 8.42432C6.63561 8.42432 6.17508 8.76035 6.01697 9.25535L5.84163 9.80377L5.83991 9.80334L5.43495 8.38641C5.31131 7.95431 5.24884 7.50714 5.24884 7.0578C5.24884 5.7223 5.79037 4.5126 6.66576 3.63763C7.54073 2.76223 8.75044 2.2207 10.0859 2.2207C11.3258 2.2207 12.501 2.60541 13.4751 3.28049C14.4492 3.95556 15.222 4.921 15.6576 6.08203L15.9014 6.73255L15.9018 6.73298L16.0371 7.09399C16.76 9.02228 17.8319 10.7985 19.1958 12.3343C19.4155 12.582 19.643 12.8237 19.8778 13.0585C20.1595 13.3403 20.3796 13.6724 20.5291 14.0334C20.6786 14.3944 20.7579 14.7848 20.7579 15.1833C20.7579 15.7524 20.5972 16.2969 20.309 16.763C20.0212 17.2292 19.6059 17.6165 19.0967 17.8711L18.69 18.0744V17.3851V15.848C18.69 15.1953 18.4565 14.5892 18.0628 14.1174C17.669 13.6457 17.1141 13.3075 16.4722 13.1908C15.502 13.0146 14.7051 12.3231 14.3932 11.3874L14.3548 11.2724C14.4836 10.9338 14.5543 10.5663 14.5543 10.1824C14.5543 9.98945 14.5362 9.79731 14.5 9.60904L14.7925 9.41432C14.9334 9.3204 15.0463 9.19461 15.1238 9.04943C15.2013 8.90468 15.2436 8.74097 15.2436 8.57166C15.2436 8.34075 15.1501 8.13138 14.9984 7.98016C14.8472 7.82852 14.6378 7.73503 14.4069 7.73503C14.2773 7.73503 14.1493 7.76519 14.033 7.82335L13.7961 7.94182L13.3097 6.96906Z" fill="#656D78"/>
            <path d="M9.95447 12.8975L10.5748 13.8284C10.9083 14.3277 11.4688 14.628 12.0693 14.628C12.5652 14.628 13.0145 14.4273 13.3393 14.102C13.6646 13.7772 13.8653 13.3278 13.8653 12.832V12.1199C14.0713 11.8678 14.2376 11.5822 14.3552 11.2725L14.3935 11.3875C14.7054 12.3232 15.5024 13.0146 16.4726 13.1908C17.1145 13.3076 17.6694 13.6458 18.0631 14.1175C18.4569 14.5892 18.6904 15.1954 18.6904 15.8481V17.3852H15.9332V20.8316H9.72959L9.17169 17.2064L8.22176 17.9452L6.42831 16.1518L6.60451 14.6543C7.47776 13.8168 8.50696 13.1598 9.63223 12.72C9.73648 12.7846 9.84418 12.844 9.95447 12.897V12.8975Z" fill="#75B1F2"/>
            <path d="M18.6898 18.0745V20.8317H15.9326V17.3853H18.6898V18.0745Z" fill="#F0D0B4"/>
            <path d="M6.42823 16.1517L8.22168 17.9452L6.83922 19.0204C6.47863 19.3009 6.03533 19.453 5.57867 19.453C5.01173 19.453 4.49864 19.2234 4.12729 18.8516C3.7555 18.4802 3.52588 17.9671 3.52588 17.4002V17.361C3.52588 17.1486 3.55862 16.9375 3.62367 16.7354L5.8419 9.80376L6.01724 9.25534C6.17534 8.76035 6.63588 8.42432 7.15543 8.42432C7.30147 8.42432 7.44148 8.4506 7.5703 8.49842C7.73357 8.55873 7.88005 8.65351 8.00067 8.77456C8.21737 8.99083 8.35092 9.28938 8.35092 9.61981V9.65255C8.35092 9.82487 8.31387 9.99332 8.24365 10.1475C8.18506 10.2764 8.1032 10.3953 8.00067 10.4978L7.80939 10.6891L6.97234 11.5261L6.60443 14.6542L6.42823 16.1517Z" fill="#F0D0B4"/>
            <path d="M15.2436 8.57149C15.2436 8.7408 15.2014 8.9045 15.1239 9.04926C15.0463 9.19444 14.9334 9.32023 14.7926 9.41415L14.5001 9.60887C14.4919 9.56493 14.4828 9.52099 14.4725 9.47748C14.4182 9.247 14.3372 9.02341 14.2304 8.81059L13.7961 7.94165L14.0331 7.82318C14.1494 7.76502 14.2773 7.73486 14.407 7.73486C14.6379 7.73486 14.8473 7.82835 14.9985 7.97999C15.1501 8.13121 15.2436 8.34058 15.2436 8.57149Z" fill="#F0D0B4"/>
            <path d="M13.8648 12.1196V12.8318C13.8648 13.3276 13.6641 13.7769 13.3388 14.1018C13.014 14.427 12.5646 14.6278 12.0688 14.6278C11.4682 14.6278 10.9078 14.3275 10.5743 13.8282L9.95395 12.8972V12.8968C10.4257 13.126 10.9487 13.2492 11.4872 13.2492C12.3342 13.2492 13.101 12.9059 13.6559 12.351C13.7295 12.2773 13.7993 12.2002 13.8648 12.1196Z" fill="#F0D0B4"/>
            <path d="M8.24357 10.1475C8.31379 9.99332 8.35084 9.82487 8.35084 9.65255V9.61981C8.35084 9.28938 8.21729 8.99083 8.0006 8.77457C7.87997 8.65351 7.7335 8.55873 7.57022 8.49842C8.07254 7.90089 8.35084 7.1431 8.35084 6.35645L9.1655 7.00826C9.75355 7.4787 10.4842 7.73503 11.2373 7.73503C11.7387 7.73503 12.226 7.61699 12.6628 7.39857C12.8946 7.28268 13.1117 7.13879 13.3099 6.96905L13.7962 7.94182L14.2305 8.81075C14.3373 9.02357 14.4183 9.24716 14.4726 9.47764C14.483 9.52115 14.492 9.5651 14.5002 9.60904C14.5364 9.7973 14.5545 9.98944 14.5545 10.1824C14.5545 10.5663 14.4838 10.9338 14.355 11.2724C14.2374 11.5821 14.0711 11.8678 13.8652 12.1198C13.7997 12.2003 13.7299 12.2775 13.6562 12.3511C13.1014 12.906 12.3345 13.2494 11.4875 13.2494C10.949 13.2494 10.426 13.1261 9.95431 12.897C9.84402 12.844 9.73632 12.7845 9.63206 12.7199C9.26545 12.4924 8.93976 12.1969 8.67481 11.8428L7.80932 10.6891L8.0006 10.4978C8.10313 10.3953 8.18498 10.2764 8.24357 10.1475Z" fill="#F0D0B4"/>
            <path d="M12.5073 5.50379C12.1795 5.83155 11.7437 6.0121 11.2802 6.0121C10.8166 6.0121 10.3808 5.83159 10.053 5.50379L9.62833 5.0791L9.14096 5.56647L9.56565 5.99116C10.0236 6.44915 10.6325 6.70135 11.2802 6.70135C11.9279 6.70135 12.5368 6.44915 12.9948 5.99116L13.0748 5.91112L12.5875 5.42375L12.5073 5.50379Z" fill="black"/>
            <path d="M20.1212 12.8148C18.7746 11.4682 17.6904 9.9275 16.8867 8.22163C17.5157 8.72848 18.2241 9.13473 18.9845 9.41988C19.4266 9.5857 19.7237 10.0143 19.7237 10.4865C19.7237 10.6625 19.6821 10.8386 19.6034 10.9959L19.4154 11.372L20.0319 11.6802L20.2199 11.3042C20.3462 11.0516 20.413 10.7689 20.413 10.4865C20.413 9.7286 19.9362 9.0406 19.2265 8.77445C18.1085 8.35518 17.1135 7.64875 16.3491 6.73143L16.2034 6.55665L15.98 5.96093C15.528 4.75536 14.7296 3.73043 13.6713 2.99702C12.613 2.26366 11.373 1.87598 10.0855 1.87598C7.22837 1.87598 4.90395 4.20044 4.90395 7.05751C4.90395 7.53902 4.97103 8.01795 5.10329 8.48098L5.48029 9.80041L3.2948 16.6301C3.21911 16.8666 3.18073 17.1125 3.18073 17.3608V17.4001C3.18073 18.722 4.25624 19.7975 5.57821 19.7975C6.10862 19.7975 6.63136 19.6182 7.05011 19.2925L8.91981 17.8382L9.43333 21.176H19.0344V18.2872L19.2507 18.1791C20.3928 17.6081 21.1023 16.4601 21.1023 15.1832C21.1023 14.2886 20.7539 13.4475 20.1212 12.8148ZM6.62688 18.7485C6.3285 18.9806 5.95607 19.1083 5.57812 19.1083C4.63625 19.1083 3.86997 18.3421 3.86997 17.4002V17.3609C3.86997 17.184 3.89733 17.0088 3.95122 16.8404L6.34479 9.36043C6.458 9.00669 6.78361 8.76897 7.15501 8.76897C7.62407 8.76897 8.00572 9.15058 8.00572 9.61969V9.65243C8.00572 9.87964 7.91723 10.0933 7.75654 10.254L6.64347 11.367L6.05412 16.3767C5.98967 16.9244 5.73946 17.4407 5.34954 17.8307L5.83691 18.3181C6.2361 17.9188 6.52047 17.416 6.6607 16.8721L7.7014 17.9128L6.62688 18.7485ZM7.77153 11.2138L8.39849 12.0497C8.56103 12.2665 8.74529 12.4634 8.94673 12.6389C8.26907 12.9542 7.6348 13.3451 7.05036 13.8082L7.3001 11.6852L7.77153 11.2138ZM14.5384 8.65649L14.2614 8.10247C14.3085 8.08791 14.3575 8.0796 14.4068 8.0796C14.678 8.0796 14.8986 8.30026 14.8986 8.57145C14.8986 8.75097 14.827 8.92006 14.7026 9.04413C14.6559 8.9117 14.6012 8.78207 14.5384 8.65649ZM13.1853 7.49142L13.922 8.96478C14.11 9.34083 14.2093 9.76186 14.2093 10.1823C14.2093 11.6834 12.988 12.9047 11.4869 12.9047C10.4941 12.9047 9.54564 12.4304 8.94988 11.6362L8.26343 10.7209C8.33206 10.6498 8.39315 10.5733 8.44614 10.4922L8.20646 10.7209C8.33806 11.0723 8.25858 11.0349 8.52991 10.4922L8.69501 10.0759C8.55237 10.3612 9.0017 9.77422 8.68799 9.79964C8.69256 9.751 8.69501 9.70193 8.69501 9.65243V9.61969C8.69501 9.11754 8.45337 8.67084 8.08029 8.38956C8.35498 7.97603 8.54333 7.51115 8.63354 7.02438L8.94988 7.27748C9.59652 7.79479 10.4087 8.07968 11.2368 8.07968C11.9349 8.07964 12.613 7.86906 13.1853 7.49142ZM13.517 12.9224C13.47 13.6806 12.8386 14.2833 12.0687 14.2833C11.5823 14.2833 11.1309 14.0417 10.8611 13.637L10.7893 13.5293C11.018 13.5717 11.2514 13.594 11.4869 13.594C12.2468 13.594 12.9493 13.3441 13.517 12.9224ZM9.41825 16.5455C9.39572 16.3991 9.3843 16.2497 9.3843 16.1015V16.0879C9.3843 15.6369 9.49089 15.1854 9.69255 14.7821L9.07602 14.4738C8.82675 14.9723 8.69497 15.5304 8.69497 16.0879V16.1015C8.69497 16.2847 8.7091 16.4693 8.73693 16.6503L8.79974 17.0584L8.24969 17.4863L6.78942 16.026L6.93133 14.8197C7.71592 14.0875 8.61454 13.5104 9.60626 13.102C9.64219 13.1221 9.67846 13.1415 9.71499 13.1604L10.2876 14.0193C10.6855 14.6162 11.3513 14.9726 12.0687 14.9726C13.249 14.9726 14.2093 14.0123 14.2093 12.832V12.2358C14.25 12.182 14.289 12.1271 14.3264 12.071C14.7697 12.8292 15.5259 13.369 16.4104 13.5299C17.5314 13.7337 18.3451 14.7086 18.3451 15.8481V17.0405H15.5879V15.1153C15.5879 14.8931 15.6745 14.6841 15.8316 14.527L15.3443 14.0396C15.0569 14.3269 14.8987 14.7089 14.8987 15.1154V17.0405C14.8987 17.4206 15.2079 17.7298 15.588 17.7298V20.487H10.0246L9.41825 16.5455ZM16.2772 20.4869V17.7297H18.3451V20.4869H16.2772ZM19.0344 17.5144V15.8481C19.0344 15.1248 18.7803 14.4533 18.3506 13.9254C18.8458 14.1471 19.2237 14.5625 19.3967 15.0815L20.0506 14.8636C19.7985 14.1073 19.2259 13.5131 18.4795 13.2333C17.4413 12.8439 16.5965 12.0833 16.1006 11.0915L15.8961 10.6827L15.2796 10.9909L15.4841 11.3998C15.7623 11.9563 16.1357 12.4496 16.5832 12.8618C16.5666 12.8585 16.5503 12.8547 16.5336 12.8516C15.6869 12.6977 14.9919 12.095 14.7198 11.2786L14.7183 11.2741C14.8345 10.931 14.8985 10.5641 14.8985 10.1822C14.8985 10.0459 14.89 9.90954 14.8736 9.77409L14.9833 9.70094C15.3618 9.44857 15.5878 9.0263 15.5878 8.57136C15.5878 7.92007 15.058 7.39022 14.4067 7.39022C14.2509 7.39022 14.095 7.42193 13.9511 7.48194L13.733 7.04557C13.8512 6.92788 13.9616 6.80139 14.0627 6.66651L14.1403 6.56303L13.5889 6.14945L13.5113 6.25289C12.9772 6.96501 12.1269 7.39013 11.2368 7.39013C10.5646 7.39013 9.90532 7.15888 9.38043 6.73897L8.00564 5.63912V6.3562C8.00564 6.98552 7.80497 7.59873 7.43787 8.10592C7.34611 8.08882 7.25164 8.07943 7.15496 8.07943C6.6408 8.07943 6.17531 8.33123 5.89304 8.73606L5.766 8.29147C5.65132 7.89004 5.59316 7.47479 5.59316 7.05738C5.59316 4.58032 7.60839 2.56514 10.0854 2.56514C12.4092 2.56514 14.5187 4.02704 15.3346 6.20283L15.714 7.21475C16.577 9.51608 17.8958 11.5641 19.6337 13.3021C20.1362 13.8045 20.4129 14.4726 20.4129 15.1831C20.413 16.1627 19.8874 17.0464 19.0344 17.5144Z" fill="black"/>
            <path d="M6.82417 6.21446C6.72983 6.59184 6.47617 6.9081 6.1282 7.08206L6.43645 7.69859C6.96462 7.4345 7.34967 6.9545 7.49287 6.38165L7.65063 5.75069L6.98193 5.5835L6.82417 6.21446Z" fill="black"/>
            <path d="M2.7842 6.8519L4.32304 6.33894L4.10505 5.68506L1.50815 6.55068L2.16134 7.20387L-0.00527954 7.74552L0.161917 8.41422L3.50959 7.57729L2.7842 6.8519Z" fill="black"/>
            <path d="M3.03619 4.14406L4.45015 4.61536L4.66813 3.96148L1.94634 3.0542L2.28052 4.05673L0.199761 3.27641L-0.0422668 3.92184L3.39131 5.2094L3.03619 4.14406Z" fill="black"/>
            <path d="M2.81505 1.74953L5.03297 3.52385L5.46356 2.9856L4.23503 2.0028L5.26897 1.65815L3.05104 -0.116211L2.62045 0.422039L3.84899 1.40488L2.81505 1.74953Z" fill="black"/>
            <path d="M10.5921 11.8506L10.4763 12.0243L11.0499 12.4066L11.1656 12.233C11.4607 11.7904 11.9544 11.5262 12.4864 11.5262V10.8369C11.7234 10.8369 11.0153 11.2159 10.5921 11.8506Z" fill="black"/>
            <ellipse cx="6.60416" cy="8.09788" rx="2.8884" ry="2.8884" fill="#FF4646" fill-opacity="0.3"/>
            <ellipse cx="6.60472" cy="8.09788" rx="2.05296" ry="2.05296" fill="#FF4646" fill-opacity="0.5"/>
            <ellipse cx="6.60412" cy="8.09789" rx="1.34252" ry="1.34252" fill="#FF4646" fill-opacity="0.9"/>
        </g>
    </g>
    <defs>
        <clipPath id="clip0_3550_1848">
            <rect width="20" height="20" fill="white"/>
        </clipPath>
        <clipPath id="clip1_3550_1848">
            <rect width="21.2925" height="21.2925" fill="white" transform="translate(-0.116028 -0.116211)"/>
        </clipPath>
    </defs>
</svg>
