<svg width="31" height="30" viewBox="0 0 31 30" fill="none" xmlns="http://www.w3.org/2000/svg">
    <path d="M22.3844 10.3656C22.5006 10.4817 22.5928 10.6196 22.6557 10.7713C22.7186 10.9231 22.751 11.0857 22.751 11.25C22.751 11.4143 22.7186 11.5769 22.6557 11.7287C22.5928 11.8804 22.5006 12.0183 22.3844 12.1344L13.6344 20.8844C13.5183 21.0006 13.3804 21.0928 13.2287 21.1557C13.0769 21.2186 12.9143 21.251 12.75 21.251C12.5857 21.251 12.4231 21.2186 12.2713 21.1557C12.1196 21.0928 11.9817 21.0006 11.8656 20.8844L8.11562 17.1344C7.88107 16.8998 7.7493 16.5817 7.7493 16.25C7.74931 15.9183 7.88107 15.6002 8.11562 15.3656C8.35017 15.1311 8.66829 14.9993 9 14.9993C9.33171 14.9993 9.64983 15.1311 9.88438 15.3656L12.75 18.2328L20.6156 10.3656C20.7317 10.2494 20.8696 10.1572 21.0213 10.0943C21.1731 10.0314 21.3357 9.99902 21.5 9.99902C21.6643 9.99902 21.8269 10.0314 21.9787 10.0943C22.1304 10.1572 22.2683 10.2494 22.3844 10.3656ZM30.25 2.5V27.5C30.25 28.163 29.9866 28.7989 29.5178 29.2678C29.0489 29.7366 28.413 30 27.75 30H2.75C2.08696 30 1.45107 29.7366 0.982233 29.2678C0.513392 28.7989 0.25 28.163 0.25 27.5V2.5C0.25 1.83696 0.513392 1.20107 0.982233 0.732233C1.45107 0.263392 2.08696 0 2.75 0H27.75C28.413 0 29.0489 0.263392 29.5178 0.732233C29.9866 1.20107 30.25 1.83696 30.25 2.5ZM27.75 27.5V2.5H2.75V27.5H27.75Z" fill="#F7941E"/>
</svg>
